# xmcd CD database file
#
# Track frame offsets:
#	150
#	13196
#	25482
#	48080
#	70685
#	87580
#	112416
#	138506
#	158805
#	175872
#
# Disc length: 2740 seconds
#
# Revision: 0
# Processed by: cddbd v1.5.2PL0 Copyright (c) Steve Scherf et al.
# Submitted via: CDex 1.51
#
DISCID=880ab20a
DTITLE=Dawson Smith - The River Road
DYEAR=2005
DGENRE=Blues
TTITLE0=Undercover Lover
TTITLE1=The River Road
TTITLE2=Feel The Moon 
TTITLE3=Lovesick
TTITLE4=Everything Can Change
TTITLE5=Guardian Angel
TTITLE6=SxSW
TTITLE7=You Stay Away
TTITLE8=Gates Of Hell
TTITLE9=Sing All The Way Home
EXTD=YEAR: 2005
EXTT0=
EXTT1=
EXTT2=
EXTT3=
EXTT4=
EXTT5=
EXTT6=
EXTT7=
EXTT8=
EXTT9=
PLAYORDER=
